<?xml version="1.0" encoding="UTF-8"?>
<svg id="Layer_1" xmlns="http://www.w3.org/2000/svg" version="1.1" viewBox="0 0 235 53.93">
  <!-- Generator: Adobe Illustrator 30.2.1, SVG Export Plug-In . SVG Version: 2.1.1 Build 1)  -->
  <defs>
    <style>
      .st0 {
        fill: #231f20;
      }

      .st1 {
        stroke: #000;
        stroke-width: 4px;
      }

      .st1, .st2 {
        fill: none;
        stroke-miterlimit: 10;
      }

      .st2 {
        stroke: #f15a24;
        stroke-width: 5px;
      }
    </style>
  </defs>
  <path class="st1" d="M38.06,43.27c-3.28,2.44-7.34,3.89-11.74,3.89-3.48,0-6.75-.9-9.58-2.49"/>
  <path class="st2" d="M38.12,43.23"/>
  <path class="st2" d="M38.12,43.23"/>
  <line class="st1" x1="26.91" y1="1.58" x2="26.91" y2="6.5"/>
  <path class="st2" d="M17.21,44.97"/>
  <line class="st1" x1="1.72" y1="28.92" x2="6.63" y2="28.85"/>
  <line class="st1" x1="26.91" y1="47.43" x2="26.91" y2="52.35"/>
  <path class="st1" d="M7.61,21.17c-.57,1.85-.88,3.81-.88,5.84,0,5.87,2.58,11.14,6.66,14.75"/>
  <path class="st1" d="M8.96,17.55c3.24-6.42,9.89-10.82,17.57-10.82,5.23,0,9.99,2.05,13.51,5.38"/>
  <path class="st2" d="M8.96,17.55"/>
  <text/>
  <g>
    <path class="st0" d="M25.77,37.96c-1.94,0-3.6-.42-4.99-1.25-1.39-.83-2.47-2-3.22-3.52s-1.13-3.29-1.13-5.32.38-3.78,1.13-5.32c.75-1.53,1.81-2.73,3.17-3.59,1.36-.86,2.95-1.29,4.77-1.29,1.11,0,2.18.18,3.22.55,1.04.37,1.97.94,2.8,1.73.83.78,1.48,1.8,1.96,3.05.48,1.25.72,2.76.72,4.54v1.36h-15.61v-2.86h11.86c0-1.01-.2-1.9-.61-2.68s-.98-1.4-1.72-1.85-1.6-.68-2.59-.68c-1.07,0-2.01.26-2.81.79-.8.52-1.41,1.21-1.84,2.05-.43.84-.65,1.75-.65,2.73v2.24c0,1.31.23,2.43.7,3.35s1.11,1.62,1.95,2.1c.83.48,1.81.72,2.93.72.72,0,1.39-.1,1.98-.31.6-.21,1.11-.52,1.55-.94.43-.42.77-.93,1-1.55l3.62.65c-.29,1.07-.81,2-1.55,2.79s-1.68,1.42-2.8,1.85c-1.12.44-2.4.66-3.83.66Z"/>
    <path class="st0" d="M41.47,17.93l4.33,7.64,4.37-7.64h4.18l-6.12,9.82,6.17,9.82h-4.18l-4.42-7.34-4.41,7.34h-4.19l6.11-9.82-6.03-9.82h4.19Z"/>
    <path class="st0" d="M66.57,37.96c-1.84,0-3.45-.42-4.82-1.27-1.37-.84-2.44-2.02-3.2-3.54-.76-1.52-1.14-3.29-1.14-5.32s.38-3.82,1.14-5.34c.76-1.53,1.82-2.71,3.2-3.55,1.37-.84,2.98-1.27,4.82-1.27s3.45.42,4.82,1.27c1.37.84,2.44,2.03,3.2,3.55.76,1.53,1.14,3.31,1.14,5.34s-.38,3.8-1.14,5.32c-.76,1.52-1.82,2.7-3.2,3.54-1.37.84-2.98,1.27-4.82,1.27ZM66.58,34.75c1.19,0,2.18-.32,2.97-.95.78-.63,1.37-1.47,1.74-2.52.38-1.05.57-2.2.57-3.46s-.19-2.4-.57-3.46c-.38-1.05-.96-1.9-1.74-2.54-.78-.64-1.77-.96-2.97-.96s-2.2.32-2.98.96c-.79.64-1.37,1.49-1.75,2.54-.38,1.05-.57,2.21-.57,3.46s.19,2.42.57,3.46c.38,1.05.96,1.89,1.75,2.52.79.63,1.78.95,2.98.95Z"/>
    <path class="st0" d="M94.69,22.72l-3.46.61c-.14-.44-.37-.87-.68-1.27-.31-.4-.73-.73-1.26-.98-.53-.26-1.19-.38-1.98-.38-1.08,0-1.99.24-2.71.72-.72.48-1.09,1.1-1.09,1.86,0,.66.24,1.18.73,1.58.49.4,1.27.73,2.35.98l3.12.72c1.81.42,3.15,1.06,4.04,1.93s1.33,2,1.33,3.39c0,1.18-.34,2.22-1.02,3.14s-1.62,1.63-2.83,2.15c-1.21.52-2.6.78-4.19.78-2.2,0-3.99-.47-5.38-1.41-1.39-.94-2.24-2.28-2.56-4.02l3.69-.56c.23.96.7,1.69,1.42,2.18.72.49,1.65.74,2.8.74,1.25,0,2.25-.26,3-.79.75-.52,1.12-1.17,1.12-1.92,0-.61-.23-1.13-.68-1.55-.46-.42-1.15-.73-2.09-.95l-3.32-.73c-1.83-.42-3.19-1.08-4.06-1.99-.87-.91-1.31-2.07-1.31-3.46,0-1.16.32-2.17.97-3.04.65-.87,1.54-1.55,2.68-2.04,1.14-.49,2.45-.74,3.92-.74,2.12,0,3.79.46,5.01,1.37s2.02,2.14,2.42,3.68Z"/>
    <path class="st0" d="M107.73,37.96c-1.93,0-3.6-.42-4.99-1.25-1.39-.83-2.47-2-3.22-3.52-.75-1.51-1.13-3.29-1.13-5.32s.38-3.78,1.13-5.32c.75-1.53,1.81-2.73,3.17-3.59,1.36-.86,2.95-1.29,4.78-1.29,1.11,0,2.18.18,3.22.55,1.04.37,1.97.94,2.8,1.73.83.78,1.48,1.8,1.96,3.05s.72,2.76.72,4.54v1.36h-15.61v-2.86h11.86c0-1.01-.21-1.9-.61-2.68s-.98-1.4-1.72-1.85c-.74-.45-1.6-.68-2.59-.68-1.07,0-2.01.26-2.81.79-.8.52-1.41,1.21-1.84,2.05-.43.84-.65,1.75-.65,2.73v2.24c0,1.31.23,2.43.7,3.35.46.92,1.11,1.62,1.95,2.1.83.48,1.81.72,2.93.72.72,0,1.38-.1,1.98-.31.6-.21,1.11-.52,1.55-.94.43-.42.77-.93,1-1.55l3.62.65c-.29,1.07-.81,2-1.55,2.79s-1.68,1.42-2.8,1.85c-1.12.44-2.4.66-3.83.66Z"/>
    <path class="st0" d="M126.13,38c-1.24,0-2.37-.23-3.38-.7-1.01-.46-1.8-1.14-2.38-2.03-.58-.89-.88-1.97-.88-3.26,0-1.11.21-2.02.64-2.74.43-.72,1-1.28,1.73-1.7.72-.42,1.53-.73,2.43-.95.89-.21,1.81-.38,2.74-.49,1.18-.14,2.13-.25,2.86-.34.73-.09,1.27-.24,1.6-.44.33-.2.5-.54.5-1v-.09c0-1.12-.31-1.98-.94-2.6-.63-.61-1.56-.92-2.79-.92s-2.3.28-3.04.85c-.74.57-1.25,1.2-1.53,1.89l-3.59-.82c.43-1.19,1.05-2.16,1.87-2.9.82-.74,1.77-1.27,2.84-1.61,1.07-.34,2.2-.5,3.39-.5.78,0,1.62.09,2.5.27.88.18,1.71.52,2.48,1,.77.49,1.4,1.18,1.9,2.08.49.9.74,2.06.74,3.5v13.04h-3.73v-2.68h-.15c-.25.49-.62.98-1.11,1.46s-1.13.87-1.9,1.19c-.78.32-1.71.47-2.79.47ZM126.96,34.93c1.06,0,1.96-.21,2.72-.63.75-.42,1.33-.97,1.73-1.64.4-.68.59-1.4.59-2.18v-2.53c-.14.14-.4.26-.79.38-.39.11-.83.21-1.32.29-.5.08-.98.15-1.45.22-.47.06-.86.12-1.18.16-.74.09-1.42.25-2.03.47s-1.09.54-1.46.95c-.36.41-.54.96-.54,1.64,0,.95.35,1.66,1.05,2.14.7.48,1.59.72,2.67.72Z"/>
    <path class="st0" d="M140.91,37.56v-19.64h3.7v3.12h.2c.36-1.06.99-1.89,1.9-2.5s1.94-.91,3.09-.91c.24,0,.52,0,.85.03s.59.04.77.06v3.66c-.15-.04-.43-.09-.82-.15-.39-.06-.78-.08-1.18-.08-.9,0-1.71.19-2.41.57-.7.38-1.26.9-1.67,1.57s-.61,1.43-.61,2.28v11.99h-3.82Z"/>
    <path class="st0" d="M163.01,37.96c-1.9,0-3.54-.43-4.9-1.3-1.37-.87-2.42-2.06-3.15-3.59-.73-1.53-1.1-3.27-1.1-5.24s.38-3.76,1.12-5.29c.75-1.53,1.81-2.72,3.17-3.59,1.36-.86,2.97-1.29,4.82-1.29,1.49,0,2.82.27,3.99.82s2.11,1.32,2.83,2.31c.72.99,1.15,2.14,1.28,3.46h-3.72c-.2-.92-.67-1.71-1.4-2.38-.73-.66-1.7-1-2.92-1-1.07,0-2,.28-2.79.84s-1.42,1.35-1.86,2.38c-.44,1.03-.67,2.24-.67,3.64s.22,2.67.65,3.71c.43,1.04,1.05,1.85,1.85,2.42.8.57,1.74.86,2.82.86.72,0,1.38-.13,1.98-.4.59-.27,1.09-.65,1.5-1.16.41-.5.69-1.11.85-1.81h3.72c-.14,1.27-.55,2.4-1.24,3.4s-1.61,1.78-2.77,2.35c-1.15.57-2.51.86-4.06.86Z"/>
    <path class="st0" d="M179,25.9v11.66h-3.82V11.38h3.77v9.74h.24c.46-1.06,1.16-1.9,2.11-2.52.95-.62,2.18-.93,3.71-.93,1.35,0,2.53.28,3.54.83s1.79,1.38,2.35,2.47c.56,1.1.84,2.46.84,4.1v12.49h-3.82v-12.03c0-1.44-.37-2.56-1.11-3.36s-1.77-1.2-3.09-1.2c-.9,0-1.71.19-2.42.58-.71.38-1.27.94-1.67,1.68-.4.74-.61,1.63-.61,2.67Z"/>
    <path class="st0" d="M199.37,37.81c-.7,0-1.3-.25-1.8-.75-.5-.5-.75-1.1-.75-1.81s.25-1.3.75-1.8,1.1-.75,1.8-.75,1.3.25,1.8.75.75,1.1.75,1.8c0,.47-.12.9-.35,1.29s-.54.7-.93.93c-.38.23-.81.35-1.28.35Z"/>
    <path class="st0" d="M208.97,14.9c-.67,0-1.23-.22-1.71-.67-.47-.45-.71-.98-.71-1.6s.24-1.17.71-1.62c.47-.45,1.04-.67,1.71-.67s1.23.22,1.71.67c.47.45.71.98.71,1.6s-.24,1.17-.71,1.62c-.47.45-1.04.67-1.71.67ZM207.04,37.56v-19.64h3.82v19.64h-3.82Z"/>
    <path class="st0" d="M224.27,37.96c-1.84,0-3.45-.42-4.82-1.27s-2.44-2.02-3.2-3.54c-.76-1.52-1.14-3.29-1.14-5.32s.38-3.82,1.14-5.34c.76-1.53,1.82-2.71,3.2-3.55s2.98-1.27,4.82-1.27,3.45.42,4.82,1.27,2.44,2.03,3.2,3.55c.76,1.53,1.14,3.31,1.14,5.34s-.38,3.8-1.14,5.32c-.76,1.52-1.82,2.7-3.2,3.54s-2.98,1.27-4.82,1.27ZM224.28,34.75c1.19,0,2.18-.32,2.97-.95s1.37-1.47,1.75-2.52c.38-1.05.57-2.2.57-3.46s-.19-2.4-.57-3.46c-.38-1.05-.96-1.9-1.75-2.54s-1.77-.96-2.97-.96-2.2.32-2.99.96c-.79.64-1.37,1.49-1.75,2.54-.38,1.05-.57,2.21-.57,3.46s.19,2.42.57,3.46c.38,1.05.96,1.89,1.75,2.52.79.63,1.78.95,2.99.95Z"/>
  </g>
</svg>